#N canvas 632 23 720 855 10;
#X obj 37 289 snapshot~;
#X obj 101 211 tgl 15 0 empty empty empty 17 7 0 10 -262144 -1 -1 1
1;
#X floatatom 37 323 20 0 0 0 - - -;
#X obj 40 368 hsl 80 15 0 1 0 0 empty empty empty -2 -8 0 10 -262144
-1 -1 792 1;
#X obj 101 230 metro 10;
#X obj 37 105 osc~;
#X floatatom 37 81 5 0 0 0 - - -;
#X obj 37 152 *~;
#X obj 108 116 hsl 80 15 0 1 0 0 empty empty empty -2 -8 0 10 -262144
-1 -1 1000 1;
#X text 101 97 volume in;
#X obj 37 211 iamp~;
#X text 32 36 test oscillator patch;
#X msg 93 167 1;
#X msg 134 168 0;
#X text 132 369 output between 0 and 1;
#X connect 0 0 2 0;
#X connect 1 0 4 0;
#X connect 2 0 3 0;
#X connect 4 0 0 0;
#X connect 5 0 7 0;
#X connect 6 0 5 0;
#X connect 7 0 10 0;
#X connect 8 0 7 1;
#X connect 10 0 0 0;
